<?xml version="1.0" standalone="no"?>
<!DOCTYPE svg PUBLIC "-//W3C//DTD SVG 20010904//EN"
 "http://www.w3.org/TR/2001/REC-SVG-20010904/DTD/svg10.dtd">
<svg version="1.0" xmlns="http://www.w3.org/2000/svg"
 width="1280.000000pt" height="1280.000000pt" viewBox="0 0 1280.000000 1280.000000"
 preserveAspectRatio="xMidYMid meet">
<metadata>
Created by potrace 1.11, written by Peter Selinger 2001-2013
</metadata>
<g transform="translate(0.000000,1280.000000) scale(0.100000,-0.100000)"
fill="#000000" stroke="none">
<path d="M4075 12793 c-143 -17 -324 -72 -453 -140 -348 -181 -665 -563 -871
-1048 -41 -96 -137 -366 -145 -409 -3 -12 -16 -66 -30 -121 -48 -188 -76 -352
-106 -605 -19 -156 -32 -355 -34 -494 l-1 -70 153 0 c85 -1 157 1 160 4 9 6 9
6 17 110 6 89 16 156 41 280 8 41 16 84 18 96 14 72 74 252 115 345 174 389
518 666 913 735 90 15 274 22 343 11 401 -59 718 -336 985 -862 90 -177 132
-272 195 -440 20 -55 41 -109 46 -120 50 -115 272 -885 303 -1055 2 -14 16
-74 30 -135 13 -60 43 -201 66 -311 l41 -202 -34 -73 c-19 -41 -47 -101 -62
-134 -15 -33 -42 -91 -60 -130 -18 -38 -46 -99 -63 -135 -16 -36 -45 -99 -65
-140 -19 -41 -79 -169 -132 -285 -54 -115 -112 -241 -130 -280 -18 -38 -44
-95 -58 -125 -36 -80 -218 -471 -262 -565 -21 -44 -52 -111 -70 -150 -18 -38
-103 -223 -190 -410 -86 -187 -170 -367 -185 -400 -15 -33 -119 -256 -230
-495 -111 -239 -215 -462 -230 -495 -26 -57 -186 -402 -255 -550 -194 -417
-423 -912 -445 -960 -15 -33 -76 -163 -135 -290 -59 -126 -115 -248 -125 -270
-10 -22 -37 -80 -60 -130 -44 -93 -55 -118 -158 -340 -33 -71 -76 -164 -95
-205 -19 -41 -107 -231 -195 -422 -89 -190 -184 -394 -212 -453 -27 -59 -50
-109 -50 -110 0 -2 -27 -61 -61 -132 -33 -70 -67 -141 -74 -158 -8 -16 -52
-112 -99 -212 -46 -101 -81 -184 -78 -184 4 -1 382 -2 840 -3 546 -1 836 2
841 9 4 6 29 60 56 120 26 61 58 133 70 160 13 28 37 84 55 125 18 41 44 99
57 129 14 29 39 88 57 130 46 106 471 1072 507 1149 16 35 29 65 29 67 0 2 16
38 35 79 19 42 35 78 35 81 0 2 15 37 34 77 19 40 46 102 61 138 15 36 38 90
52 120 44 96 60 133 93 210 18 41 48 108 66 148 19 40 34 74 34 77 0 3 256
585 295 670 7 17 23 53 35 80 12 27 28 63 35 80 27 58 178 402 242 550 36 83
76 175 90 205 14 30 40 89 58 130 18 41 41 95 53 120 11 25 52 119 92 210 78
177 97 222 140 315 14 33 105 239 201 457 l174 397 12 -47 c11 -43 279 -1247
289 -1299 2 -12 29 -133 60 -270 30 -136 64 -286 74 -333 10 -47 28 -129 40
-184 12 -54 23 -106 25 -115 2 -9 24 -106 49 -216 25 -110 48 -216 51 -235 3
-19 10 -51 16 -70 5 -19 45 -197 88 -395 126 -569 234 -1008 295 -1199 8 -22
30 -93 51 -156 38 -118 90 -270 105 -305 4 -11 19 -49 33 -85 43 -111 60 -150
129 -291 144 -295 260 -448 448 -591 198 -149 450 -275 640 -319 25 -6 54 -13
65 -15 24 -6 52 -11 129 -23 67 -10 320 -8 381 3 302 54 524 168 736 378 210
209 352 440 460 748 30 85 93 315 104 380 3 19 8 42 10 50 5 17 9 38 29 170 8
52 18 122 21 155 4 33 8 70 10 81 2 12 6 61 10 110 4 49 9 105 11 124 2 19 6
137 10 261 l6 226 -161 1 c-115 0 -161 -3 -162 -11 0 -7 -2 -19 -3 -27 -2 -8
-7 -41 -10 -74 -9 -67 -11 -83 -31 -191 -22 -118 -22 -117 -49 -217 -138 -503
-436 -815 -835 -874 -20 -3 -47 -7 -61 -10 -55 -9 -249 -4 -326 10 -161 29
-311 92 -454 190 -78 54 -239 206 -309 293 -179 221 -351 579 -507 1053 -67
203 -185 611 -219 760 -2 8 -15 60 -29 115 -28 113 -102 427 -109 465 -5 25
-13 59 -43 185 -9 39 -18 81 -21 95 -2 13 -13 61 -23 105 -10 45 -26 115 -35
156 -9 41 -18 81 -20 89 -21 92 -35 152 -39 174 -3 14 -7 34 -10 44 -3 9 -7
28 -10 42 -7 38 -53 245 -75 340 -11 47 -22 96 -25 110 -3 14 -14 66 -26 115
-11 50 -29 131 -40 180 -10 50 -44 200 -75 335 -30 135 -57 254 -59 265 -2 11
-11 50 -20 86 -8 37 -17 78 -20 90 -2 13 -11 54 -20 90 -8 37 -17 79 -20 93
-3 14 -7 34 -10 44 -3 9 -7 28 -10 42 -3 14 -24 108 -46 210 -23 102 -46 201
-50 220 -14 69 -112 499 -161 715 -28 121 -52 226 -54 235 -2 8 -17 76 -35
150 -17 74 -33 142 -35 151 -2 9 -15 64 -29 123 -14 59 -28 121 -31 138 -3 17
-8 34 -10 38 -2 4 -7 20 -9 36 -3 16 -26 112 -51 214 -26 102 -48 192 -50 201
-2 9 -15 65 -30 125 -14 60 -28 116 -30 124 -8 37 -167 657 -199 775 -261 959
-477 1483 -774 1877 -227 301 -572 528 -894 589 -61 11 -282 19 -343 12z"/>
</g>
</svg>
